# xmcd
#
# Track frame offsets: 
#        150
#        11594
#        46194
#        69807
#        86833
#        104996
#        119764
#        147450
#        168206
#        182932
#
# Disc length: 2782 seconds
#
# Revision: 0
# Processed by: cddbd v1.5.2PL0 Copyright (c) Steve Scherf et al.
# Submitted via: ExactAudioCopy v1.0b3
#
DISCID=8f0adc0a
DTITLE=Draugr - Nocturnal Pagan Supremacy
DYEAR=2006
DGENRE=Metal
TTITLE0=Dove Regna L'inverno
TTITLE1=Nocturnal Pagan Supremacy
TTITLE2=Spirit Of The Past
TTITLE3=Reborn In Darkness
TTITLE4=Land Of Warriors pt.I
TTITLE5=Land Of Warriors pt.II
TTITLE6=The Forest Where I Died
TTITLE7=Furore Pagano
TTITLE8=War Is My God
TTITLE9=The Night Of The Wolf
EXTD=
EXTT0=
EXTT1=
EXTT2=
EXTT3=
EXTT4=
EXTT5=
EXTT6=
EXTT7=
EXTT8=
EXTT9=
PLAYORDER=
